<svg width="12" height="10" viewBox="0 0 12 10" fill="none" xmlns="http://www.w3.org/2000/svg">
<path d="M7.86889 9.7948C7.61822 8.23945 7.38683 6.76999 7.14098 5.2385L6.7457 5.55816C5.86549 6.32651 4.85322 6.93247 3.75695 7.34728C3.58457 7.42209 3.39613 7.45341 3.20852 7.43842C3.02091 7.42343 2.83999 7.36261 2.68196 7.2614C2.00227 6.83201 1.29847 6.43125 0.599487 6.02094C0.704212 5.86943 0.850869 5.75104 1.02187 5.67996C1.19288 5.60887 1.38097 5.58812 1.5636 5.62018C2.11436 5.67825 2.66801 5.70533 3.22187 5.70128C3.39577 5.69859 3.56441 5.64184 3.70393 5.53907C5.63215 3.91693 7.56038 2.28843 9.4886 0.653573C9.98965 0.21704 10.6386 -0.0163728 11.3059 -5.29999e-05C11.9037 -5.29999e-05 12.1544 0.391169 11.8989 0.954146C11.7577 1.23639 11.563 1.48909 11.3252 1.69842C10.7612 2.20892 10.1731 2.69079 9.58501 3.17266C9.5087 3.22821 9.44578 3.29981 9.40077 3.3823C9.35576 3.4648 9.32978 3.55614 9.32469 3.64976C9.19936 5.26235 9.0451 6.87495 8.91977 8.48755C8.91868 8.65087 8.87726 8.81145 8.79912 8.95531C8.72099 9.09916 8.6085 9.22194 8.47146 9.31293C8.26227 9.46307 8.06114 9.62391 7.86889 9.7948Z" fill="#47585B"/>
</svg>
